<?xml version="1.0" encoding="UTF-8" standalone="no"?>
<!DOCTYPE svg PUBLIC "-//W3C//DTD SVG 1.1//EN" "http://www.w3.org/Graphics/SVG/1.1/DTD/svg11.dtd">
<svg width="100%" height="100%" viewBox="0 0 16 16" version="1.1" xmlns="http://www.w3.org/2000/svg" xmlns:xlink="http://www.w3.org/1999/xlink" xml:space="preserve" xmlns:serif="http://www.serif.com/" style="fill-rule:evenodd;clip-rule:evenodd;stroke-linejoin:round;stroke-miterlimit:2;">
    <g transform="matrix(0.111099,0,0,0.111099,-21.605,-22.5231)">
        <path d="M233.37,300.975C232.162,301.917 231.41,303.328 231.303,304.857C231.196,306.385 231.743,307.888 232.808,308.989C241.534,317.476 253.43,322.75 266.549,322.75C293.041,322.75 314.549,301.242 314.549,274.75C314.549,273.543 314.504,272.347 314.417,271.163C314.282,269.365 315.055,267.619 316.475,266.509C319.361,264.248 324.382,260.325 328.448,257.149C329.917,255.999 331.875,255.688 333.627,256.327C335.38,256.967 336.678,258.465 337.062,260.29C337.983,264.963 338.482,269.793 338.482,274.738C338.482,314.48 306.217,346.746 266.474,346.746C226.732,346.746 194.467,314.48 194.467,274.738C194.467,234.996 226.732,202.73 266.474,202.73C287.559,202.73 306.539,211.812 319.713,226.273C320.686,227.381 321.159,228.841 321.022,230.309C320.884,231.777 320.148,233.123 318.986,234.031C313.436,238.421 304.515,245.391 304.515,245.391C304.515,245.391 249.638,288.265 233.37,300.975ZM276.442,236.867C278.145,235.541 278.895,233.327 278.348,231.239C277.801,229.15 276.063,227.588 273.928,227.266C271.518,226.942 269.056,226.75 266.549,226.75C240.057,226.75 218.549,248.258 218.549,274.75C218.549,274.752 218.549,274.754 218.549,274.756C218.55,276.126 219.332,277.374 220.563,277.974C221.793,278.573 223.258,278.419 224.337,277.576C235.737,268.67 262.708,247.598 276.442,236.867Z"/>
    </g>
</svg>
